<svg id="image" width="73" height="100" viewBox="0 0 73 100" fill="none"
	xmlns="http://www.w3.org/2000/svg">
	<path d="M0 34.5703H29.2969V49.1537H0V34.5703Z" fill="#B9995B"/>
	<path d="M43.2291 55.0128V63.7369C43.2291 67.5781 40.1041 70.7031 36.2631 70.7031C32.4221 70.7031 29.2969 67.5781 29.2969 63.7369V55.0128H0V63.7369C0 83.7324 16.2676 100 36.2631 100C56.2586 100 72.5262 83.7326 72.5262 63.7369V55.0128H43.2291Z" fill="#B9995B"/>
	<path d="M43.2295 34.5703H72.5264V49.1535H43.2295V34.5703Z" fill="#B9995B"/>
	<path d="M36.2634 26.0425L49.8656 12.4404C52.7115 9.59446 52.7115 4.9802 49.8654 2.1345C47.0197 -0.711597 42.4054 -0.711402 39.5595 2.1345L36.2634 5.43059L32.9673 2.1345C30.1214 -0.711402 25.5074 -0.711402 22.6615 2.1345C19.8154 4.9804 19.8154 9.59446 22.6613 12.4404L36.2634 26.0425Z" fill="#B9995B"/>
</svg>
